<?xml version="1.0" encoding="utf-8"?>
<!-- Svg Vector Icons : http://www.onlinewebfonts.com/icon -->
<!DOCTYPE svg PUBLIC "-//W3C//DTD SVG 1.1//EN" "http://www.w3.org/Graphics/SVG/1.1/DTD/svg11.dtd">
<svg version="1.1" xmlns="http://www.w3.org/2000/svg" xmlns:xlink="http://www.w3.org/1999/xlink" x="0px" y="0px" viewBox="0 0 1000 1000" enable-background="new 0 0 1000 1000" xml:space="preserve">
<metadata> Svg Vector Icons : http://www.onlinewebfonts.com/icon </metadata>
<g><g><path d="M979.9,482.6L745.5,347.2c-9.6-5.6-21.9-2.3-27.5,7.4c-5.6,9.6-2.3,21.9,7.4,27.5l169.5,97.8H30.1c-11.1,0-20.1,9-20.1,20.1c0,11.1,9,20.1,20.1,20.1h864.6l-169.3,97.8c-9.6,5.6-12.9,17.9-7.4,27.5c3.7,6.5,10.5,10.1,17.4,10.1c3.4,0,6.9-0.9,10-2.7l234.4-135.4c6.2-3.6,10.1-10.2,10.1-17.4C990,492.8,986.2,486.2,979.9,482.6z"/></g><g></g><g></g><g></g><g></g><g></g><g></g><g></g><g></g><g></g><g></g><g></g><g></g><g></g><g></g><g></g></g>
</svg>