<?xml version="1.0" encoding="UTF-8"?><svg id="Layer_2" xmlns="http://www.w3.org/2000/svg" viewBox="0 0 804 527.4"><defs><style>.cls-1{fill:#5f6368;}.cls-2{fill:none;stroke:#5f6368;stroke-miterlimit:10;stroke-width:4px;}</style></defs><g id="Capa_1"><path class="cls-2" d="M693.9,244.8c5.7-18.2,8.6-37,8.6-56.2,0-102.9-83.7-186.6-186.6-186.6-62.4,0-121.1,31.8-155.5,83.6-26.4-18.9-58.4-29.2-91-29.2-86.4,0-156.6,70.3-156.6,156.6,0,10.2,1,20.4,3,30.4C50.3,256.8,2,315.3,2,383c0,78.5,63.9,142.4,142.4,142.4H659.6c78.5,0,142.4-63.9,142.4-142.4,0-66.1-44.9-122.7-108.1-138.2Z"/><g><path class="cls-1" d="M360.4,304.2c-6.8,28.9-22.7,41.3-53.2,41.3-40.2,0-57.4-17.9-57.4-59.7s17.3-59.7,57.4-59.7c32.9,0,48.7,12.4,53.2,41.3h-26.5c-3.2-15-11-21.1-26.8-21.1-20.6,0-29.5,11.8-29.5,39.5s8.9,39.5,29.5,39.5c15.2,0,22.9-6.1,26.8-21.1h26.5Z"/><path class="cls-1" d="M488.8,285.8c0,41.8-17.3,59.7-57.7,59.7s-57.7-17.9-57.7-59.7,17.3-59.7,57.7-59.7c40.5,0,57.7,17.9,57.7,59.7Zm-87.6,0c0,27.7,8.9,39.5,29.8,39.5s30-11.8,30-39.5-9-39.5-30-39.5-29.8,11.8-29.8,39.5Z"/><path class="cls-1" d="M553.2,330.7v11.6h-54.6v-9.7c22.6-20.2,39.7-29,39.7-43.5,0-8.9-3.3-12.7-11.3-12.7s-11.4,4.5-11.4,15.3h-15.9c0-18.8,8.2-26.9,27.3-26.9s27.3,7.3,27.3,24.3c0,15.5-13.9,24.5-33.2,41.5h32.1v.1Z"/></g></g></svg>