<?xml version="1.0" encoding="UTF-8"?><svg id="Layer_2" xmlns="http://www.w3.org/2000/svg" viewBox="0 0 136.72 76.65"><defs><style>.cls-1{fill:#3d8fff;}</style></defs><g id="Layer_1-2"><path class="cls-1" d="M93.22,0l18.64,25.55h12.43c6.9,0,12.43,5.68,12.43,12.77v19.16h-12.43c0,10.58-8.35,19.16-18.64,19.16s-18.64-8.58-18.64-19.16H49.72c0,10.58-8.35,19.16-18.64,19.16s-18.64-8.58-18.64-19.16H0v-19.16c0-7.09,5.53-12.77,12.43-12.77L31.07,0h62.15M59.04,9.58h-23.3l-11.75,15.97H59.04V9.58m9.32,0v15.97h31.94l-11.75-15.97h-20.2M31.07,47.9c-5.15,0-9.32,4.29-9.32,9.58s4.17,9.58,9.32,9.58,9.32-4.29,9.32-9.58-4.17-9.58-9.32-9.58m74.58,0c-5.15,0-9.32,4.29-9.32,9.58s4.17,9.58,9.32,9.58,9.32-4.29,9.32-9.58-4.17-9.58-9.32-9.58Z"/></g></svg>