<?xml version="1.0" encoding="UTF-8"?><svg id="Layer_2" xmlns="http://www.w3.org/2000/svg" viewBox="0 0 32 24"><defs><style>.cls-1{fill:#ffba06;}.cls-2{fill:#3d8fff;}</style></defs><g id="Layer_1-2"><g><path class="cls-2" d="M0,15.21C0,9.06,2.25,6.42,7.53,6.42c2.28,0,3.97,.47,5.18,1.52V0h5.11V23.66h-4.01l-.69-1.59c-1.21,1.32-3.04,1.93-5.6,1.93-5.29,0-7.53-2.64-7.53-8.79Zm12.71,0c0-3.58-1.14-5.14-3.8-5.14s-3.8,1.55-3.8,5.14,1.14,5.14,3.8,5.14,3.8-1.55,3.8-5.14Z"/><path class="cls-1" d="M27.03,5.31v1.62h4.97v3.11h-4.97v13.79h-5.11V10.04h-2.9v-3.11h2.9v-1.62c0-3.18,1.93-5.14,5.32-5.14h4.77V3.82h-3.39c-1.11,0-1.59,.54-1.59,1.49Z"/></g></g></svg>