<?xml version="1.0" encoding="UTF-8"?><svg id="Layer_2" xmlns="http://www.w3.org/2000/svg" viewBox="0 0 24.32 35.55"><defs><style>.cls-1{fill:none;stroke:#000;stroke-miterlimit:10;stroke-width:.5px;}</style></defs><g id="Layer_1-2"><path class="cls-1" d="M18.63,4.43l-3.24-2.39-1.7-1.27c-.92-.69-2.18-.69-3.1,0L2.63,6.72C1.13,7.85,.25,9.61,.25,11.48V29.35c0,3.29,2.67,5.95,5.95,5.95h11.91c3.29,0,5.95-2.67,5.95-5.95V11.48c0-1.88-.88-3.65-2.39-4.77l-2.76-2.07-.29-.21Zm-7.25,18.26h1.79c.1,0,.2,0,.3,0,2.09,.15,3.71,1.88,3.72,3.98v.65c0,1.98-1.46,3.66-3.42,3.95v.31c0,.82-.67,1.49-1.49,1.49s-1.49-.67-1.49-1.49v-.31c-1.96-.29-3.41-1.97-3.42-3.95,0-.82,.67-1.49,1.49-1.49s1.49,.67,1.49,1.49c0,.57,.46,1.03,1.03,1.03h1.79c.57,0,1.03-.46,1.03-1.03v-.65c0-.57-.47-1.03-1.03-1.03h-1.79c-.1,0-.2,0-.3,0-2.09-.15-3.71-1.88-3.72-3.98v-.65c0-1.98,1.46-3.66,3.42-3.95v-.31c0-.82,.67-1.49,1.49-1.49s1.49,.67,1.49,1.49v.31c1.96,.29,3.41,1.97,3.42,3.95,0,.82-.67,1.49-1.49,1.49s-1.49-.67-1.49-1.49c0-.57-.47-1.03-1.03-1.03h-1.79c-.57,0-1.03,.47-1.03,1.03v.65c0,.57,.46,1.03,1.03,1.03h0Z"/><circle class="cls-1" cx="12.27" cy="6.58" r="2.32"/></g></svg>