<?xml version="1.0" encoding="UTF-8"?><svg id="Layer_1" xmlns="http://www.w3.org/2000/svg" viewBox="0 0 1633 900"><defs><style>.cls-1{fill:#fff;}.cls-2{fill:#ffba06;}.cls-3{fill:#161616;}.cls-4{fill:#3d8fff;}</style></defs><rect class="cls-3" x="-8.5" y="-9" width="1642" height="920"/><path class="cls-4" d="M964.5,149.49v31.16l16.54-2.83,5.51-36.83,8.27-2.83,8.27-2.83c1.42-.49,3.4-1.34,5.51-2.83,2.26-1.6,4.36-3.02,5.51-5.67,1.09-2.5,1.27-5.88,0-8.5-3.66-7.54-18.02-5.83-19.3-5.67-6.14,.8-10.83,3.5-13.78,5.67-9.19-7.55-18.38-15.11-27.56-22.66l-13.78,5.67,19.3,28.33-16.54,5.67-11.03-8.5-11.03,5.67,11.03,14.17v22.66l13.78-2.83,2.76-14.17,16.54-2.83Z"/><path class="cls-2" d="M1429.16,641l15.32,21h10.22c5.67,0,10.22,4.67,10.22,10.5v15.75h-10.22c0,8.7-6.86,15.75-15.32,15.75s-15.32-7.05-15.32-15.75h-30.65c0,8.7-6.86,15.75-15.32,15.75s-15.32-7.05-15.32-15.75h-10.22v-15.75c0-5.83,4.55-10.5,10.22-10.5l15.32-21h51.08m-28.09,7.88h-19.16l-9.65,13.12h28.81v-13.12m7.66,0v13.12h26.26l-9.65-13.12h-16.6m-30.65,31.5c-4.23,0-7.66,3.53-7.66,7.88s3.43,7.87,7.66,7.87,7.66-3.53,7.66-7.87-3.43-7.88-7.66-7.88m61.3,0c-4.23,0-7.66,3.53-7.66,7.88s3.43,7.87,7.66,7.87,7.66-3.53,7.66-7.87-3.43-7.88-7.66-7.88Z"/><g><path class="cls-1" d="M1054.76,206.4h-8.38v23.39h-6.67v-23.39h-8.38v-5.09h23.43v5.09Z"/><path class="cls-1" d="M1058.41,229.79v-28.48h6.02v9.24c1.3-1.02,3.09-1.51,5.41-1.51,5.57,0,7.98,2.93,7.98,9.76v10.99h-6.02v-10.99c0-3.78-1.06-5.37-3.58-5.37s-3.74,1.59-3.74,5.37l.04,10.99-.04-.16v.16h-6.06Z"/><path class="cls-1" d="M1088.72,230.2c-5.37,0-7.65-1.91-7.65-6.43,0-4.84,2.93-6.92,9.85-6.92h3.5v-.89c0-2.44-1.02-3.5-3.42-3.5s-3.42,.94-3.38,3.09h-5.74c0-4.56,2.77-6.51,9.28-6.51s9.28,2.28,9.28,7.57v13.18h-4.72l-.69-1.71c-1.3,1.47-3.38,2.12-6.31,2.12Zm3.05-9.93c-2.36,0-4.68,.24-4.68,3.17,0,1.99,.98,2.69,3.25,2.69,3.3,0,4.07-1.95,4.07-4.84v-1.02h-2.64Z"/><path class="cls-1" d="M1109.59,209.49l.73,1.59c1.34-1.38,3.3-2.03,5.98-2.03,5.57,0,7.97,2.93,7.97,9.76v10.99h-6.02v-10.99c0-3.78-1.06-5.37-3.58-5.37s-3.74,1.46-3.74,4.88v11.47h-6.02v-20.34h4.72l-.04,.04Z"/><path class="cls-1" d="M1134.77,217.3l7.08-7.85h7.12l-8.79,9.76,9.6,10.58h-7.12l-7.89-8.71v8.71h-6.02v-28.48h6.02v15.99Z"/><path class="cls-1" d="M1169.63,223.53c0,4.68-2.85,6.67-9.48,6.67-6.1,0-8.75-1.95-8.75-6.51h5.7c0,2.16,.98,3.09,3.25,3.09s3.25-.77,3.25-2.6c0-4.39-12.12-.81-12.12-8.87,0-4.39,2.64-6.27,8.87-6.27s8.54,1.83,8.54,6.1h-5.37c0-1.87-.94-2.69-3.17-2.69s-3.17,.65-3.17,2.2c0,3.99,12.45,.73,12.45,8.87Z"/><path class="cls-1" d="M1193.71,207.5v1.95h5.86v3.74h-5.86v16.6h-6.02v-16.6h-3.42v-3.74h3.42v-1.95c0-3.82,2.28-6.18,6.27-6.18h5.61v4.39h-3.99c-1.3,0-1.87,.65-1.87,1.79Z"/><path class="cls-1" d="M1223.82,219.62c0,7.41-3.25,10.58-10.9,10.58s-10.9-3.17-10.9-10.58,3.25-10.58,10.9-10.58,10.9,3.17,10.9,10.58Zm-10.9,6.18c3.42,0,4.88-1.87,4.88-6.18s-1.46-6.18-4.88-6.18-4.88,1.83-4.88,6.18,1.46,6.18,4.88,6.18Z"/><path class="cls-1" d="M1237.81,214.13c-3.05,0-4.35,1.63-4.35,5.45v10.17h-6.02v-20.34h4.72l.81,1.91c1.3-1.59,2.77-2.28,4.88-2.28h2.93v5.09h-2.97Z"/><path class="cls-1" d="M1276.01,222.31c-.61,5.53-3.62,7.89-10.09,7.89-7.65,0-10.9-3.17-10.9-10.58s3.25-10.58,10.9-10.58c6.47,0,9.48,2.36,10.09,7.89h-6.02c-.45-2.44-1.67-3.5-4.07-3.5-3.42,0-4.88,1.87-4.88,6.18s1.46,6.18,4.88,6.18c2.36,0,3.58-1.06,4.07-3.5h6.02Z"/><path class="cls-1" d="M1279.66,229.79v-28.48h6.02v9.24c1.3-1.02,3.09-1.51,5.41-1.51,5.57,0,7.98,2.93,7.98,9.76v10.99h-6.02v-10.99c0-3.78-1.06-5.37-3.58-5.37s-3.74,1.59-3.74,5.37l.04,10.99-.04-.16v.16h-6.06Z"/><path class="cls-1" d="M1312.82,226.46c2.32,0,3.46-.9,3.99-3.01h5.7c-.9,4.72-3.78,6.75-9.68,6.75-7.36,0-10.5-3.17-10.5-10.58s3.13-10.58,10.5-10.58,10.5,3.21,10.5,10.74v1.79h-14.93c.33,3.38,1.67,4.88,4.43,4.88Zm-4.48-8.3h8.99c0-3.78-1.34-5.37-4.48-5.37-2.85,0-4.23,1.63-4.52,5.37Z"/><path class="cls-1" d="M1346.75,222.31c-.61,5.53-3.62,7.89-10.09,7.89-7.65,0-10.9-3.17-10.9-10.58s3.25-10.58,10.9-10.58c6.47,0,9.48,2.36,10.09,7.89h-6.02c-.45-2.44-1.67-3.5-4.07-3.5-3.42,0-4.88,1.87-4.88,6.18s1.46,6.18,4.88,6.18c2.36,0,3.58-1.06,4.07-3.5h6.02Z"/><path class="cls-1" d="M1356.43,217.3l7.08-7.85h7.12l-8.79,9.76,9.6,10.58h-7.12l-7.89-8.71v8.71h-6.02v-28.48h6.02v15.99Z"/><path class="cls-1" d="M1380.87,203.59c0,2.24-1.06,3.17-3.5,3.17s-3.5-.94-3.5-3.17,1.06-3.17,3.5-3.17,3.5,.98,3.5,3.17Zm-6.51,26.2v-20.34h6.02v20.34h-6.02Z"/><path class="cls-1" d="M1390.03,209.49l.73,1.59c1.34-1.38,3.3-2.03,5.98-2.03,5.57,0,7.97,2.93,7.97,9.76v10.99h-6.02v-10.99c0-3.78-1.06-5.37-3.58-5.37s-3.74,1.46-3.74,4.88v11.47h-6.02v-20.34h4.72l-.04,.04Z"/><path class="cls-1" d="M1407.97,219.62c0-7.4,2.64-10.58,8.87-10.58,3.01,0,5.21,.73,6.67,2.36l.77-1.95h4.72v18.31c0,7.4-3.13,10.58-10.5,10.58-6.06,0-8.95-2.03-9.68-6.75h5.7c.45,2.12,1.55,3.01,3.66,3.01,3.38,0,4.8-1.75,4.8-5.82v-.41c-1.42,1.26-3.42,1.83-6.1,1.83-6.23,0-8.91-3.17-8.91-10.58Zm14.97,0c0-4.35-1.34-6.18-4.48-6.18s-4.48,1.83-4.48,6.18,1.34,6.18,4.48,6.18,4.48-1.83,4.48-6.18Z"/><path class="cls-1" d="M1053.13,268.44c0,7.41-3.25,10.58-10.9,10.58s-10.9-3.17-10.9-10.58,3.25-10.58,10.9-10.58,10.9,3.17,10.9,10.58Zm-10.9,6.18c3.42,0,4.88-1.87,4.88-6.18s-1.46-6.18-4.88-6.18-4.88,1.83-4.88,6.18,1.46,6.18,4.88,6.18Z"/><path class="cls-1" d="M1071.07,278.57l-.73-1.59c-1.34,1.38-3.3,2.03-5.98,2.03-5.57,0-7.97-2.93-7.97-9.76v-10.99h6.02v10.99c0,3.78,1.06,5.37,3.58,5.37s3.74-1.46,3.74-4.88l.04-11.47h5.98v20.34h-4.72l.04-.04Z"/><path class="cls-1" d="M1090.96,262.94c-3.05,0-4.35,1.63-4.35,5.45v10.17h-6.02v-20.34h4.72l.81,1.91c1.3-1.59,2.77-2.28,4.88-2.28h2.93v5.09h-2.97Z"/><path class="cls-1" d="M1130.3,268.44c0,7.41-2.64,10.58-8.87,10.58-2.64,0-4.64-.57-6.06-1.83v9.56h-6.02v-28.48h4.72l.81,1.91c1.46-1.58,3.61-2.32,6.57-2.32,6.21,0,8.85,3.18,8.85,10.58Zm-15.01,0c0,4.31,1.34,6.18,4.48,6.18s4.48-1.87,4.48-6.18-1.34-6.14-4.48-6.14-4.48,1.83-4.48,6.14Z"/><path class="cls-1" d="M1144.33,262.94c-3.05,0-4.35,1.63-4.35,5.45v10.17h-6.02v-20.34h4.72l.81,1.91c1.3-1.59,2.77-2.28,4.88-2.28h2.93v5.09h-2.97Z"/><path class="cls-1" d="M1171.14,268.44c0,7.41-3.25,10.58-10.9,10.58s-10.9-3.17-10.9-10.58,3.25-10.58,10.9-10.58,10.9,3.17,10.9,10.58Zm-10.9,6.18c3.42,0,4.88-1.87,4.88-6.18s-1.46-6.18-4.88-6.18-4.88,1.83-4.88,6.18,1.46,6.18,4.88,6.18Z"/><path class="cls-1" d="M1174.8,279.1v-20.83h6.06v21.48c0,3.82-2.32,6.18-6.31,6.18h-5.45v-4.39h3.17c1.63,0,2.52-.98,2.52-2.44Zm6.51-26.69c0,2.24-1.06,3.17-3.5,3.17s-3.5-.94-3.5-3.17,1.06-3.17,3.5-3.17,3.5,.98,3.5,3.17Z"/><path class="cls-1" d="M1195.06,275.27c2.32,0,3.46-.89,3.99-3.01h5.7c-.9,4.72-3.78,6.75-9.68,6.75-7.36,0-10.5-3.17-10.5-10.58s3.13-10.58,10.5-10.58,10.5,3.21,10.5,10.74v1.79h-14.93c.33,3.38,1.67,4.88,4.43,4.88Zm-4.48-8.3h8.99c0-3.78-1.34-5.37-4.48-5.37-2.85,0-4.23,1.63-4.52,5.37Z"/><path class="cls-1" d="M1228.98,271.12c-.61,5.53-3.62,7.89-10.09,7.89-7.65,0-10.9-3.17-10.9-10.58s3.25-10.58,10.9-10.58c6.47,0,9.48,2.36,10.09,7.89h-6.02c-.45-2.44-1.67-3.5-4.07-3.5-3.42,0-4.88,1.87-4.88,6.18s1.46,6.18,4.88,6.18c2.36,0,3.58-1.06,4.07-3.5h6.02Z"/><path class="cls-1" d="M1243.63,274.21h3.34v4.39h-5.61c-3.99,0-6.27-2.36-6.27-6.18v-10.42h-3.25v-3.74h3.25v-5.13h6.06v5.13h5.82v3.74h-5.82v9.77c0,1.46,.89,2.44,2.48,2.44Z"/><path class="cls-1" d="M1257.62,275.68c0,2.32-1.06,3.34-3.5,3.34s-3.5-1.02-3.5-3.34,1.06-3.38,3.5-3.38,3.5,1.02,3.5,3.38Zm-.33-25.55v7.73l-1.3,10.33h-3.74l-1.3-10.33v-7.73h6.35Z"/></g><g><path class="cls-1" d="M1044.56,343.75l3.86,16.02,4.3-16.02h2.28l-5.06,18.15h-2.93l-3.94-16.02-3.73,16.02h-2.93l-5.06-18.15h2.28l4.3,16.02,3.86-16.02h2.75Z"/><path class="cls-1" d="M1062.6,360.63c2,0,2.98-.7,3.53-2.59h1.97c-.62,2.88-2.28,4.12-5.5,4.12-4.23,0-6.04-2.02-6.04-6.74s1.79-6.74,6.04-6.74,6.02,2.1,6.02,7.03v.86h-9.96c.23,2.8,1.37,4.07,3.94,4.07Zm-.03-10.42c-2.75,0-3.97,1.45-3.97,4.95h7.93c0-3.55-1.19-4.95-3.97-4.95Z"/><path class="cls-1" d="M1073.11,347.38l-.18,4.43h-1.5l-.21-4.43v-3.63h1.89v3.63Z"/><path class="cls-1" d="M1075.7,355.39c0-4.72,1.66-6.74,5.55-6.74,2.1,0,3.55,.6,4.43,1.89v-6.82h2.07v18.15h-1.69l-.31-1.76c-.88,1.4-2.36,2.05-4.54,2.05-3.89,0-5.52-2.05-5.52-6.77Zm9.98,0c0-3.5-1.19-5-3.94-5s-3.97,1.5-3.97,5,1.19,5,3.97,5,3.94-1.5,3.94-5Z"/><path class="cls-1" d="M1099.68,343.75h2.07v18.15h-2.07v-18.15Z"/><path class="cls-1" d="M1117.7,355.41c0,4.72-1.89,6.74-6.27,6.74s-6.3-2.02-6.3-6.74,1.89-6.74,6.3-6.74,6.27,2.02,6.27,6.74Zm-6.27,5c2.96,0,4.2-1.48,4.2-5s-1.22-5-4.2-5-4.23,1.45-4.23,5,1.25,5,4.23,5Z"/><path class="cls-1" d="M1129.79,348.93h2.2l-4.72,12.97h-3.03l-4.72-12.97h2.2l4.07,11.51,3.99-11.51Z"/><path class="cls-1" d="M1139.85,360.63c2,0,2.98-.7,3.53-2.59h1.97c-.62,2.88-2.28,4.12-5.5,4.12-4.23,0-6.04-2.02-6.04-6.74s1.79-6.74,6.04-6.74,6.02,2.1,6.02,7.03v.86h-9.96c.23,2.8,1.37,4.07,3.94,4.07Zm-.03-10.42c-2.75,0-3.97,1.45-3.97,4.95h7.93c0-3.55-1.19-4.95-3.97-4.95Z"/><path class="cls-1" d="M1162.67,360.16h1.69v1.74h-2.36c-2.44,0-3.68-1.4-3.68-3.55v-7.88h-2.07v-1.53h2.07v-3.09h2.1v3.09h3.94v1.53h-3.94v7.65c0,1.22,.67,2.05,2.26,2.05Z"/><path class="cls-1" d="M1179.26,355.41c0,4.72-1.89,6.74-6.27,6.74s-6.3-2.02-6.3-6.74,1.89-6.74,6.3-6.74,6.27,2.02,6.27,6.74Zm-6.27,5c2.96,0,4.2-1.48,4.2-5s-1.22-5-4.2-5-4.23,1.45-4.23,5,1.25,5,4.23,5Z"/><path class="cls-1" d="M1190.41,343.75h2.07v6.59c.83-1.14,2.18-1.66,4.1-1.66,3.4,0,4.85,1.87,4.85,6.22v7h-2.07v-7c0-3.19-.93-4.49-3.27-4.49-2.57,0-3.6,1.3-3.6,4.49v7h-2.07v-18.15Z"/><path class="cls-1" d="M1210.59,360.63c2,0,2.98-.7,3.53-2.59h1.97c-.62,2.88-2.28,4.12-5.5,4.12-4.23,0-6.04-2.02-6.04-6.74s1.79-6.74,6.04-6.74,6.02,2.1,6.02,7.03v.86h-9.96c.23,2.8,1.37,4.07,3.94,4.07Zm-.03-10.42c-2.75,0-3.97,1.45-3.97,4.95h7.93c0-3.55-1.19-4.95-3.97-4.95Z"/><path class="cls-1" d="M1228.27,360.37c-.8,1.22-2.2,1.79-4.3,1.79-3.34,0-4.77-1.19-4.77-3.99,0-3.09,1.74-4.41,5.83-4.41h3.11v-.67c0-2.13-.96-3.01-3.22-3.01s-3.22,.8-3.22,2.75h-2c0-2.9,1.58-4.15,5.26-4.15s5.24,1.4,5.24,4.64v8.58h-1.69l-.26-1.53Zm-3.19-5.21c-2.67,0-3.81,.86-3.81,2.88,0,1.82,.91,2.49,3.19,2.49,2.46,0,3.68-1.09,3.68-3.66v-1.71h-3.06Z"/><path class="cls-1" d="M1236.18,355.41v6.48h-2.07v-12.97h1.68l.31,1.56c.67-1.19,1.76-1.82,3.35-1.82h1.43v1.97h-1.43c-2.52,0-3.27,1.25-3.27,4.77Z"/><path class="cls-1" d="M1256.12,361.59l-5.65-12.65h2.02l4.51,10.11,3.53-10.11h2l-4.82,13.48c-1.04,2.9-2.33,4.15-4.33,4.15h-1.43v-1.53h1.35c1.19,0,2.02-.98,2.77-3.29l.05-.16Z"/><path class="cls-1" d="M1276.66,355.41c0,4.72-1.89,6.74-6.27,6.74s-6.3-2.02-6.3-6.74,1.89-6.74,6.3-6.74,6.27,2.02,6.27,6.74Zm-6.27,5c2.96,0,4.2-1.48,4.2-5s-1.22-5-4.2-5-4.23,1.45-4.23,5,1.25,5,4.23,5Z"/><path class="cls-1" d="M1284.36,362.16c-3.4,0-4.85-1.87-4.85-6.22v-7h2.07v7c0,3.19,.96,4.49,3.27,4.49,2.52,0,3.6-1.35,3.6-4.49v-7h2.07v12.97h-1.69l-.28-1.53c-.83,1.22-2.2,1.79-4.2,1.79Z"/><path class="cls-1" d="M1297.01,355.41v6.48h-2.07v-12.97h1.68l.31,1.56c.67-1.19,1.76-1.82,3.35-1.82h1.43v1.97h-1.43c-2.52,0-3.27,1.25-3.27,4.77Z"/><path class="cls-1" d="M1318.25,360.16h1.69v1.74h-2.36c-2.44,0-3.68-1.4-3.68-3.55v-7.88h-2.07v-1.53h2.07v-3.09h2.1v3.09h3.94v1.53h-3.94v7.65c0,1.22,.67,2.05,2.26,2.05Z"/><path class="cls-1" d="M1323.05,343.75h2.07v6.59c.83-1.14,2.18-1.66,4.1-1.66,3.4,0,4.85,1.87,4.85,6.22v7h-2.07v-7c0-3.19-.93-4.49-3.27-4.49-2.57,0-3.6,1.3-3.6,4.49v7h-2.07v-18.15Z"/><path class="cls-1" d="M1349.75,355.41c0,4.72-1.89,6.74-6.27,6.74s-6.3-2.02-6.3-6.74,1.89-6.74,6.3-6.74,6.27,2.02,6.27,6.74Zm-6.27,5c2.96,0,4.2-1.48,4.2-5s-1.22-5-4.2-5-4.23,1.45-4.23,5,1.25,5,4.23,5Z"/><path class="cls-1" d="M1357.46,362.16c-3.4,0-4.85-1.87-4.85-6.22v-7h2.07v7c0,3.19,.96,4.49,3.27,4.49,2.52,0,3.6-1.35,3.6-4.49v-7h2.07v12.97h-1.69l-.28-1.53c-.83,1.22-2.2,1.79-4.2,1.79Z"/><path class="cls-1" d="M1367.26,355.44c0-4.72,1.66-6.77,5.55-6.77,2.2,0,3.68,.67,4.56,2.1l.26-1.84h1.69v11.67c0,4.75-1.82,6.74-6.02,6.74-3.37,0-5-1.24-5.52-4.12h2c.42,1.89,1.4,2.59,3.42,2.59,2.85,0,4.05-1.43,4.05-4.87v-.67c-.88,1.3-2.33,1.89-4.43,1.89-3.89,0-5.55-2-5.55-6.72Zm9.98,0c0-3.55-1.14-5-3.94-5s-3.97,1.45-3.97,5,1.14,5,3.97,5,3.94-1.45,3.94-5Z"/><path class="cls-1" d="M1383.46,343.75h2.07v6.59c.83-1.14,2.18-1.66,4.1-1.66,3.4,0,4.85,1.87,4.85,6.22v7h-2.07v-7c0-3.19-.93-4.49-3.27-4.49-2.57,0-3.6,1.3-3.6,4.49v7h-2.07v-18.15Z"/><path class="cls-1" d="M1404.03,360.16h1.69v1.74h-2.36c-2.44,0-3.68-1.4-3.68-3.55v-7.88h-2.07v-1.53h2.07v-3.09h2.1v3.09h3.94v1.53h-3.94v7.65c0,1.22,.67,2.05,2.26,2.05Z"/><path class="cls-1" d="M1418.44,358.19c0,2.77-1.58,3.97-5.29,3.97s-5.11-1.25-5.11-4.15h2c0,1.95,.91,2.75,3.16,2.75s3.16-.67,3.16-2.33c0-3.68-8.17-1.01-8.17-6.04,0-2.59,1.5-3.71,5-3.71s4.9,1.17,4.9,3.89h-1.89c0-1.76-.88-2.49-3.01-2.49s-3.01,.6-3.01,2.1c0,3.4,8.25,.83,8.25,6.02Z"/><path class="cls-1" d="M1424.74,360.65c0,1.04-.47,1.5-1.48,1.5s-1.45-.47-1.45-1.5,.44-1.5,1.45-1.5,1.48,.47,1.48,1.5Zm-.39-16.91v4.93l-.39,6.77h-1.4l-.39-6.77v-4.93h2.18Z"/><path class="cls-1" d="M1038.88,424.13h-6.22v-18.15h6.22c5.86,0,8.38,2.72,8.38,9.08s-2.52,9.08-8.38,9.08Zm-3.94-16.31v14.47h3.84c4.3,0,6.09-2.13,6.09-7.23s-1.79-7.24-6.09-7.24h-3.84Z"/><path class="cls-1" d="M1052.96,417.65v6.48h-2.07v-12.97h1.68l.31,1.56c.67-1.19,1.76-1.82,3.35-1.82h1.43v1.97h-1.43c-2.52,0-3.27,1.25-3.27,4.77Z"/><path class="cls-1" d="M1072.56,417.65c0,4.72-1.89,6.74-6.27,6.74s-6.3-2.02-6.3-6.74,1.89-6.74,6.3-6.74,6.27,2.02,6.27,6.74Zm-6.27,5c2.96,0,4.2-1.48,4.2-5s-1.22-5-4.2-5-4.23,1.45-4.23,5,1.25,5,4.23,5Z"/><path class="cls-1" d="M1082.44,410.91c3.89,0,5.55,2.05,5.55,6.77s-1.66,6.74-5.55,6.74c-2.1,0-3.55-.6-4.43-1.89v6.82h-2.07v-18.15h1.68l.31,1.76c.88-1.4,2.33-2.05,4.51-2.05Zm-4.43,6.77c0,3.5,1.19,5,3.97,5s3.94-1.5,3.94-5-1.19-5-3.94-5-3.97,1.5-3.97,5Z"/><path class="cls-1" d="M1103.47,424.39c-3.4,0-4.85-1.87-4.85-6.22v-7h2.07v7c0,3.19,.96,4.49,3.27,4.49,2.52,0,3.6-1.35,3.6-4.49v-7h2.07v12.97h-1.69l-.28-1.53c-.83,1.22-2.2,1.79-4.2,1.79Z"/><path class="cls-1" d="M1123.67,420.42c0,2.77-1.58,3.97-5.29,3.97s-5.11-1.25-5.11-4.15h2c0,1.95,.91,2.75,3.16,2.75s3.16-.67,3.16-2.33c0-3.68-8.17-1.01-8.17-6.04,0-2.59,1.5-3.71,5-3.71s4.9,1.17,4.9,3.89h-1.89c0-1.76-.88-2.49-3.01-2.49s-3.01,.6-3.01,2.1c0,3.4,8.25,.83,8.25,6.02Z"/><path class="cls-1" d="M1143.12,422.6c-.8,1.22-2.2,1.79-4.3,1.79-3.34,0-4.77-1.19-4.77-3.99,0-3.09,1.74-4.41,5.83-4.41h3.11v-.67c0-2.13-.96-3.01-3.22-3.01s-3.22,.8-3.22,2.75h-2c0-2.9,1.58-4.15,5.26-4.15s5.24,1.4,5.24,4.64v8.58h-1.69l-.26-1.53Zm-3.19-5.21c-2.67,0-3.81,.86-3.81,2.88,0,1.82,.91,2.49,3.19,2.49,2.46,0,3.68-1.09,3.68-3.66v-1.71h-3.06Z"/><path class="cls-1" d="M1155.12,410.91c3.4,0,4.85,1.87,4.85,6.22v7h-2.07v-7c0-3.19-.96-4.49-3.27-4.49-2.52,0-3.6,1.35-3.6,4.49v7h-2.07v-12.97h1.68l.29,1.53c.83-1.22,2.2-1.79,4.2-1.79Z"/><path class="cls-1" d="M1176.9,422.86c2,0,2.98-.7,3.53-2.59h1.97c-.62,2.88-2.28,4.12-5.5,4.12-4.23,0-6.04-2.02-6.04-6.74s1.79-6.74,6.04-6.74,6.02,2.1,6.02,7.03v.86h-9.96c.23,2.8,1.37,4.07,3.94,4.07Zm-.03-10.42c-2.75,0-3.97,1.45-3.97,4.95h7.93c0-3.55-1.19-4.95-3.97-4.95Z"/><path class="cls-1" d="M1188.36,417.13v7h-2.07v-12.97h1.68l.31,1.87c.7-1.45,1.95-2.13,3.84-2.13s3.19,.78,3.84,2.49c.7-1.71,2.05-2.49,4.2-2.49,3.11,0,4.43,1.87,4.43,6.22v7h-2.07v-7c0-3.14-.86-4.49-2.85-4.49-2.23,0-3.16,1.32-3.16,4.49v7h-2.1v-7c0-3.19-.8-4.49-2.83-4.49-2.26,0-3.22,1.32-3.22,4.49Z"/><path class="cls-1" d="M1216.78,422.6c-.8,1.22-2.2,1.79-4.3,1.79-3.34,0-4.77-1.19-4.77-3.99,0-3.09,1.74-4.41,5.83-4.41h3.11v-.67c0-2.13-.96-3.01-3.22-3.01s-3.22,.8-3.22,2.75h-2c0-2.9,1.58-4.15,5.26-4.15s5.24,1.4,5.24,4.64v8.58h-1.69l-.26-1.53Zm-3.19-5.21c-2.67,0-3.81,.86-3.81,2.88,0,1.82,.91,2.49,3.19,2.49,2.46,0,3.68-1.09,3.68-3.66v-1.71h-3.06Z"/><path class="cls-1" d="M1225.29,407.25c0,.98-.44,1.43-1.48,1.43s-1.45-.44-1.45-1.43,.44-1.45,1.45-1.45,1.48,.44,1.48,1.45Zm-2.52,16.88v-12.97h2.1v12.97h-2.1Z"/><path class="cls-1" d="M1229.18,405.98h2.07v18.15h-2.07v-18.15Z"/><path class="cls-1" d="M1251.48,422.6c-.8,1.22-2.2,1.79-4.3,1.79-3.34,0-4.77-1.19-4.77-3.99,0-3.09,1.74-4.41,5.83-4.41h3.11v-.67c0-2.13-.96-3.01-3.22-3.01s-3.22,.8-3.22,2.75h-2c0-2.9,1.58-4.15,5.26-4.15s5.24,1.4,5.24,4.64v8.58h-1.69l-.26-1.53Zm-3.19-5.21c-2.67,0-3.81,.86-3.81,2.88,0,1.82,.91,2.49,3.19,2.49,2.46,0,3.68-1.09,3.68-3.66v-1.71h-3.06Z"/><path class="cls-1" d="M1262.97,422.39h1.69v1.74h-2.36c-2.44,0-3.68-1.4-3.68-3.55v-7.88h-2.07v-1.53h2.07v-3.09h2.1v3.09h3.94v1.53h-3.94v7.65c0,1.22,.67,2.05,2.26,2.05Z"/><path class="cls-1" d="M1042.46,451.25c0,2.98-1.82,4.25-6.04,4.25-3.89,0-5.58-1.25-5.58-4.15h3.63c0,1.37,.62,1.97,2.07,1.97s2.07-.49,2.07-1.66c0-2.8-7.73-.52-7.73-5.65,0-2.8,1.68-3.99,5.65-3.99s5.45,1.17,5.45,3.89h-3.42c0-1.19-.6-1.71-2.02-1.71s-2.02,.42-2.02,1.4c0,2.54,7.93,.47,7.93,5.65Z"/><path class="cls-1" d="M1053.89,455.22l-.47-1.01c-.86,.88-2.1,1.3-3.81,1.3-3.55,0-5.08-1.87-5.08-6.22v-7h3.84v7c0,2.41,.67,3.42,2.28,3.42s2.39-.93,2.39-3.11l.03-7.31h3.81v12.97h-3.01l.03-.03Z"/><path class="cls-1" d="M1073.31,448.76c0,4.72-1.69,6.74-5.65,6.74-1.68,0-2.96-.36-3.86-1.17v6.09h-3.84v-18.15h3.01l.52,1.22c.93-1.01,2.3-1.48,4.19-1.48,3.96,0,5.64,2.03,5.64,6.74Zm-9.57,0c0,2.75,.86,3.94,2.85,3.94s2.85-1.19,2.85-3.94-.86-3.92-2.85-3.92-2.85,1.17-2.85,3.92Z"/><path class="cls-1" d="M1089,448.76c0,4.72-1.69,6.74-5.65,6.74-1.68,0-2.96-.36-3.86-1.17v6.09h-3.84v-18.15h3.01l.52,1.22c.93-1.01,2.3-1.48,4.19-1.48,3.96,0,5.64,2.03,5.64,6.74Zm-9.57,0c0,2.75,.86,3.94,2.85,3.94s2.85-1.19,2.85-3.94-.86-3.92-2.85-3.92-2.85,1.17-2.85,3.92Z"/><path class="cls-1" d="M1104.48,448.76c0,4.72-2.07,6.74-6.95,6.74s-6.95-2.02-6.95-6.74,2.07-6.74,6.95-6.74,6.95,2.02,6.95,6.74Zm-6.95,3.94c2.18,0,3.11-1.19,3.11-3.94s-.93-3.94-3.11-3.94-3.11,1.17-3.11,3.94,.93,3.94,3.11,3.94Z"/><path class="cls-1" d="M1113.4,445.26c-1.94,0-2.77,1.04-2.77,3.47v6.48h-3.84v-12.97h3.01l.52,1.22c.83-1.01,1.76-1.45,3.11-1.45h1.87v3.24h-1.89Z"/><path class="cls-1" d="M1124.37,452.45h2.13v2.8h-3.58c-2.54,0-3.99-1.5-3.99-3.94v-6.64h-2.07v-2.39h2.07v-3.27h3.86v3.27h3.71v2.39h-3.71v6.22c0,.93,.57,1.56,1.58,1.56Z"/><path class="cls-1" d="M1143.97,443.32l.03,7c-.03,1.56,.31,2.23,1.12,2.23,.99,0,1.4-1.14,1.4-3.79,0-5.68-2.23-8.09-7.52-8.09s-7.88,2.41-7.86,8.09c-.03,5.47,1.97,7.83,6.66,7.83,2.41,0,3.71-.91,4.15-1.3v2.65c-.41,.34-1.92,1.04-4.15,1.04-6.64,.03-9.49-3.03-9.49-10.22s3.22-10.48,10.68-10.48,10.35,3.14,10.35,10.48c0,4.17-1.43,5.96-4.23,5.96-1.82,0-3.01-.55-3.63-1.74-.78,.83-1.97,1.22-3.6,1.22-3.4,0-4.85-1.63-4.85-5.45s1.45-5.7,4.87-5.7c1.32,0,2.52,.49,3.37,1.43l.49-1.17h2.2Zm-3.03,5.45c0-2.33-.73-3.32-2.44-3.32s-2.49,.99-2.49,3.32,.75,3.27,2.49,3.27,2.44-.99,2.44-3.27Z"/><path class="cls-1" d="M1151.16,448.76c0-4.72,1.69-6.74,5.65-6.74,1.71,0,2.98,.36,3.89,1.17v-6.09h3.84v18.15h-3.01l-.52-1.22c-.91,1.01-2.28,1.48-4.2,1.48-3.97,0-5.65-2.02-5.65-6.74Zm9.54,0c0-2.75-.86-3.94-2.85-3.94s-2.85,1.19-2.85,3.94,.86,3.94,2.85,3.94,2.85-1.19,2.85-3.94Z"/><path class="cls-1" d="M1174.23,445.26c-1.94,0-2.77,1.04-2.77,3.47v6.48h-3.84v-12.97h3.01l.52,1.22c.83-1.01,1.76-1.45,3.11-1.45h1.87v3.24h-1.89Z"/><path class="cls-1" d="M1182.4,438.55c0,1.43-.67,2.02-2.23,2.02s-2.23-.6-2.23-2.02,.67-2.02,2.23-2.02,2.23,.62,2.23,2.02Zm-4.15,16.7v-12.97h3.84v12.97h-3.84Z"/><path class="cls-1" d="M1193.58,442.28h4.07l-3.97,12.97h-5.76l-3.97-12.97h4.07l2.85,10.42,2.7-10.42Z"/><path class="cls-1" d="M1205.12,453.12c1.48,0,2.2-.57,2.54-1.92h3.63c-.57,3.01-2.41,4.3-6.17,4.3-4.69,0-6.69-2.02-6.69-6.74s2-6.74,6.69-6.74,6.69,2.05,6.69,6.85v1.14h-9.52c.21,2.15,1.06,3.11,2.83,3.11Zm-2.85-5.29h5.73c0-2.41-.86-3.42-2.85-3.42-1.82,0-2.7,1.04-2.88,3.42Z"/><path class="cls-1" d="M1227.26,448.76c0,4.72-2.07,6.74-6.95,6.74s-6.95-2.02-6.95-6.74,2.07-6.74,6.95-6.74,6.95,2.02,6.95,6.74Zm-6.95,3.94c2.18,0,3.11-1.19,3.11-3.94s-.93-3.94-3.11-3.94-3.11,1.17-3.11,3.94,.93,3.94,3.11,3.94Z"/><path class="cls-1" d="M1236.18,445.26c-1.94,0-2.77,1.04-2.77,3.47v6.48h-3.84v-12.97h3.01l.52,1.22c.83-1.01,1.76-1.45,3.11-1.45h1.87v3.24h-1.89Z"/><path class="cls-1" d="M1245.39,441.04v1.24h3.73v2.39h-3.73v10.58h-3.84v-10.58h-2.18v-2.39h2.18v-1.24c0-2.44,1.45-3.94,3.99-3.94h3.58v2.8h-2.54c-.83,0-1.19,.42-1.19,1.14Z"/><path class="cls-1" d="M1251.45,437.1h3.84v18.15h-3.84v-18.15Z"/><path class="cls-1" d="M1262.58,455.2l.1-.29-5.6-12.63h3.66l3.4,8.19,2.7-8.19h3.63l-4.36,12.5c-1.32,3.6-2.96,5.13-5.45,5.13h-1.87v-2.39h1.66c.96,0,1.61-.7,2.15-2.33h-.03Z"/><path class="cls-1" d="M1274.17,453.38c0,1.48-.67,2.13-2.23,2.13s-2.23-.65-2.23-2.13,.67-2.15,2.23-2.15,2.23,.65,2.23,2.15Z"/><path class="cls-1" d="M1280.7,438.55c0,1.43-.67,2.02-2.23,2.02s-2.23-.6-2.23-2.02,.67-2.02,2.23-2.02,2.23,.62,2.23,2.02Zm-4.15,16.7v-12.97h3.84v12.97h-3.84Z"/><path class="cls-1" d="M1296.68,448.76c0,4.72-2.07,6.74-6.95,6.74s-6.95-2.02-6.95-6.74,2.07-6.74,6.95-6.74,6.95,2.02,6.95,6.74Zm-6.95,3.94c2.18,0,3.11-1.19,3.11-3.94s-.93-3.94-3.11-3.94-3.11,1.17-3.11,3.94,.93,3.94,3.11,3.94Z"/><path class="cls-1" d="M1315.61,453.72c-.8,1.22-2.2,1.79-4.3,1.79-3.34,0-4.77-1.19-4.77-3.99,0-3.09,1.74-4.41,5.83-4.41h3.11v-.67c0-2.13-.96-3.01-3.22-3.01s-3.22,.8-3.22,2.75h-2c0-2.9,1.58-4.15,5.26-4.15s5.24,1.4,5.24,4.64v8.58h-1.69l-.26-1.53Zm-3.19-5.21c-2.67,0-3.81,.86-3.81,2.88,0,1.82,.91,2.49,3.19,2.49,2.46,0,3.68-1.09,3.68-3.66v-1.71h-3.06Z"/><path class="cls-1" d="M1327.61,442.02c3.4,0,4.85,1.87,4.85,6.22v7h-2.07v-7c0-3.19-.96-4.49-3.27-4.49-2.52,0-3.6,1.35-3.6,4.49v7h-2.07v-12.97h1.68l.29,1.53c.83-1.22,2.2-1.79,4.2-1.79Z"/><path class="cls-1" d="M1335.57,448.74c0-4.72,1.66-6.74,5.55-6.74,2.1,0,3.55,.6,4.43,1.89v-6.82h2.07v18.15h-1.69l-.31-1.76c-.88,1.4-2.36,2.05-4.54,2.05-3.89,0-5.52-2.05-5.52-6.77Zm9.98,0c0-3.5-1.19-5-3.94-5s-3.97,1.5-3.97,5,1.19,5,3.97,5,3.94-1.5,3.94-5Z"/><path class="cls-1" d="M1359.56,437.1h2.07v18.15h-2.07v-18.15Z"/><path class="cls-1" d="M1371.04,453.98c2,0,2.98-.7,3.53-2.59h1.97c-.62,2.88-2.28,4.12-5.5,4.12-4.23,0-6.04-2.02-6.04-6.74s1.79-6.74,6.04-6.74,6.02,2.1,6.02,7.03v.86h-9.96c.23,2.8,1.37,4.07,3.94,4.07Zm-.03-10.42c-2.75,0-3.97,1.45-3.97,4.95h7.93c0-3.55-1.19-4.95-3.97-4.95Z"/><path class="cls-1" d="M1386.08,453.51h1.69v1.74h-2.36c-2.44,0-3.68-1.4-3.68-3.55v-7.88h-2.07v-1.53h2.07v-3.09h2.1v3.09h3.94v1.53h-3.94v7.65c0,1.22,.67,2.05,2.26,2.05Z"/><path class="cls-1" d="M1402.99,455.51c-3.4,0-4.85-1.87-4.85-6.22v-7h2.07v7c0,3.19,.96,4.49,3.27,4.49,2.52,0,3.6-1.35,3.6-4.49v-7h2.07v12.97h-1.69l-.28-1.53c-.83,1.22-2.2,1.79-4.2,1.79Z"/><path class="cls-1" d="M1423.19,451.54c0,2.77-1.58,3.97-5.29,3.97s-5.11-1.25-5.11-4.15h2c0,1.95,.91,2.75,3.16,2.75s3.16-.67,3.16-2.33c0-3.68-8.17-1.01-8.17-6.04,0-2.59,1.5-3.71,5-3.71s4.9,1.17,4.9,3.89h-1.89c0-1.76-.88-2.49-3.01-2.49s-3.01,.6-3.01,2.1c0,3.4,8.25,.83,8.25,6.02Z"/><path class="cls-1" d="M1034.21,479l5.83-5.6h2.54l-6.48,6.22,7,6.74h-2.54l-6.35-6.12v6.12h-2.07v-18.15h2.07v10.79Z"/><path class="cls-1" d="M1052.13,473.14c3.4,0,4.85,1.87,4.85,6.22v7h-2.07v-7c0-3.19-.96-4.49-3.27-4.49-2.52,0-3.6,1.35-3.6,4.49v7h-2.07v-12.97h1.68l.29,1.53c.83-1.22,2.2-1.79,4.2-1.79Z"/><path class="cls-1" d="M1072.67,479.88c0,4.72-1.89,6.74-6.27,6.74s-6.3-2.02-6.3-6.74,1.89-6.74,6.3-6.74,6.27,2.02,6.27,6.74Zm-6.27,5c2.96,0,4.2-1.48,4.2-5s-1.22-5-4.2-5-4.23,1.45-4.23,5,1.25,5,4.23,5Z"/><path class="cls-1" d="M1087.89,486.36l-3.19-11.38-3.19,11.38h-2.52l-4.25-12.97h2.1l3.5,11.25,3.14-11.25h2.52l3.09,11.28,3.5-11.28h2.1l-4.3,12.97h-2.49Z"/><path class="cls-1" d="M1105.57,468.21h2.07v6.59c.83-1.14,2.18-1.66,4.1-1.66,3.4,0,4.85,1.87,4.85,6.22v7h-2.07v-7c0-3.19-.93-4.49-3.27-4.49-2.57,0-3.6,1.3-3.6,4.49v7h-2.07v-18.15Z"/><path class="cls-1" d="M1132.28,479.88c0,4.72-1.89,6.74-6.27,6.74s-6.3-2.02-6.3-6.74,1.89-6.74,6.3-6.74,6.27,2.02,6.27,6.74Zm-6.27,5c2.96,0,4.2-1.48,4.2-5s-1.22-5-4.2-5-4.23,1.45-4.23,5,1.25,5,4.23,5Z"/><path class="cls-1" d="M1147.5,486.36l-3.19-11.38-3.19,11.38h-2.52l-4.25-12.97h2.1l3.5,11.25,3.14-11.25h2.52l3.09,11.28,3.5-11.28h2.1l-4.3,12.97h-2.49Z"/><path class="cls-1" d="M1177.3,486.36l-3.19-11.38-3.19,11.38h-2.52l-4.25-12.97h2.1l3.5,11.25,3.14-11.25h2.52l3.09,11.28,3.5-11.28h2.1l-4.3,12.97h-2.49Z"/><path class="cls-1" d="M1192.2,485.09c2,0,2.98-.7,3.53-2.59h1.97c-.62,2.88-2.28,4.12-5.5,4.12-4.23,0-6.04-2.02-6.04-6.74s1.79-6.74,6.04-6.74,6.02,2.1,6.02,7.03v.86h-9.96c.23,2.8,1.37,4.07,3.94,4.07Zm-.03-10.42c-2.75,0-3.97,1.45-3.97,4.95h7.93c0-3.55-1.19-4.95-3.97-4.95Z"/><path class="cls-1" d="M1220.65,481.88c-.44,3.32-2.18,4.75-5.76,4.75-4.41,0-6.3-2.02-6.3-6.74s1.89-6.74,6.3-6.74c3.58,0,5.32,1.43,5.76,4.75h-2.07c-.41-2.1-1.53-3.01-3.68-3.01-2.96,0-4.23,1.5-4.23,5s1.27,5,4.23,5c2.15,0,3.24-.91,3.68-3.01h2.07Z"/><path class="cls-1" d="M1232.32,484.83c-.8,1.22-2.2,1.79-4.3,1.79-3.34,0-4.77-1.19-4.77-3.99,0-3.09,1.74-4.41,5.83-4.41h3.11v-.67c0-2.13-.96-3.01-3.22-3.01s-3.22,.8-3.22,2.75h-2c0-2.9,1.58-4.15,5.26-4.15s5.24,1.4,5.24,4.64v8.58h-1.69l-.26-1.53Zm-3.19-5.21c-2.67,0-3.81,.86-3.81,2.88,0,1.82,.91,2.49,3.19,2.49,2.46,0,3.68-1.09,3.68-3.66v-1.71h-3.06Z"/><path class="cls-1" d="M1244.32,473.14c3.4,0,4.85,1.87,4.85,6.22v7h-2.07v-7c0-3.19-.96-4.49-3.27-4.49-2.52,0-3.6,1.35-3.6,4.49v7h-2.07v-12.97h1.68l.29,1.53c.83-1.22,2.2-1.79,4.2-1.79Z"/><path class="cls-1" d="M1263.51,469.48c0,.98-.44,1.43-1.48,1.43s-1.45-.44-1.45-1.43,.44-1.45,1.45-1.45,1.48,.44,1.48,1.45Zm-2.52,16.88v-12.97h2.1v12.97h-2.1Z"/><path class="cls-1" d="M1269.48,479.36v7h-2.07v-12.97h1.68l.31,1.87c.7-1.45,1.95-2.13,3.84-2.13s3.19,.78,3.84,2.49c.7-1.71,2.05-2.49,4.2-2.49,3.11,0,4.43,1.87,4.43,6.22v7h-2.07v-7c0-3.14-.86-4.49-2.85-4.49-2.23,0-3.16,1.32-3.16,4.49v7h-2.1v-7c0-3.19-.8-4.49-2.83-4.49-2.26,0-3.22,1.32-3.22,4.49Z"/><path class="cls-1" d="M1296.11,473.14c3.89,0,5.55,2.05,5.55,6.77s-1.66,6.74-5.55,6.74c-2.1,0-3.55-.6-4.43-1.89v6.82h-2.07v-18.15h1.68l.31,1.76c.88-1.4,2.33-2.05,4.51-2.05Zm-4.43,6.77c0,3.5,1.19,5,3.97,5s3.94-1.5,3.94-5-1.19-5-3.94-5-3.97,1.5-3.97,5Z"/><path class="cls-1" d="M1307.1,479.88v6.48h-2.07v-12.97h1.68l.31,1.56c.67-1.19,1.76-1.82,3.35-1.82h1.43v1.97h-1.43c-2.52,0-3.27,1.25-3.27,4.77Z"/><path class="cls-1" d="M1326.7,479.88c0,4.72-1.89,6.74-6.27,6.74s-6.3-2.02-6.3-6.74,1.89-6.74,6.3-6.74,6.27,2.02,6.27,6.74Zm-6.27,5c2.96,0,4.2-1.48,4.2-5s-1.22-5-4.2-5-4.23,1.45-4.23,5,1.25,5,4.23,5Z"/><path class="cls-1" d="M1338.79,473.4h2.2l-4.72,12.97h-3.03l-4.72-12.97h2.2l4.07,11.51,3.99-11.51Z"/><path class="cls-1" d="M1348.85,485.09c2,0,2.98-.7,3.53-2.59h1.97c-.62,2.88-2.28,4.12-5.5,4.12-4.23,0-6.04-2.02-6.04-6.74s1.79-6.74,6.04-6.74,6.02,2.1,6.02,7.03v.86h-9.96c.23,2.8,1.37,4.07,3.94,4.07Zm-.03-10.42c-2.75,0-3.97,1.45-3.97,4.95h7.93c0-3.55-1.19-4.95-3.97-4.95Z"/><path class="cls-1" d="M1377.81,479.88c0,4.72-1.89,6.74-6.27,6.74s-6.3-2.02-6.3-6.74,1.89-6.74,6.3-6.74,6.27,2.02,6.27,6.74Zm-6.27,5c2.96,0,4.2-1.48,4.2-5s-1.22-5-4.2-5-4.23,1.45-4.23,5,1.25,5,4.23,5Z"/><path class="cls-1" d="M1385.51,486.62c-3.4,0-4.85-1.87-4.85-6.22v-7h2.07v7c0,3.19,.96,4.49,3.27,4.49,2.52,0,3.6-1.35,3.6-4.49v-7h2.07v12.97h-1.69l-.28-1.53c-.83,1.22-2.2,1.79-4.2,1.79Z"/><path class="cls-1" d="M1398.17,479.88v6.48h-2.07v-12.97h1.68l.31,1.56c.67-1.19,1.76-1.82,3.35-1.82h1.43v1.97h-1.43c-2.52,0-3.27,1.25-3.27,4.77Z"/><path class="cls-1" d="M1044.25,517.48l-3.19-11.38-3.19,11.38h-2.52l-4.25-12.97h2.1l3.5,11.25,3.14-11.25h2.52l3.09,11.28,3.5-11.28h2.1l-4.3,12.97h-2.49Z"/><path class="cls-1" d="M1059.16,516.21c2,0,2.98-.7,3.53-2.59h1.97c-.62,2.88-2.28,4.12-5.5,4.12-4.23,0-6.04-2.02-6.04-6.74s1.79-6.74,6.04-6.74,6.02,2.1,6.02,7.03v.86h-9.96c.23,2.8,1.37,4.07,3.94,4.07Zm-.03-10.42c-2.75,0-3.97,1.45-3.97,4.95h7.93c0-3.55-1.19-4.95-3.97-4.95Z"/><path class="cls-1" d="M1075.08,517.77c-2.18,0-3.66-.65-4.54-2.05l-.31,1.76h-1.68v-18.15h2.07v6.82c.88-1.3,2.33-1.89,4.43-1.89,3.89,0,5.55,2.02,5.55,6.74s-1.63,6.77-5.52,6.77Zm3.47-6.74c0-3.5-1.19-5-3.94-5s-3.97,1.5-3.97,5,1.19,5,3.97,5,3.94-1.5,3.94-5Z"/><path class="cls-1" d="M1093.59,513.77c0,2.77-1.58,3.97-5.29,3.97s-5.11-1.25-5.11-4.15h2c0,1.95,.91,2.75,3.16,2.75s3.16-.67,3.16-2.33c0-3.68-8.17-1.01-8.17-6.04,0-2.59,1.5-3.71,5-3.71s4.9,1.17,4.9,3.89h-1.89c0-1.76-.88-2.49-3.01-2.49s-3.01,.6-3.01,2.1c0,3.4,8.25,.83,8.25,6.02Z"/><path class="cls-1" d="M1099.63,500.6c0,.98-.44,1.43-1.48,1.43s-1.45-.44-1.45-1.43,.44-1.45,1.45-1.45,1.48,.44,1.48,1.45Zm-2.52,16.88v-12.97h2.1v12.97h-2.1Z"/><path class="cls-1" d="M1109.17,515.74h1.69v1.74h-2.36c-2.44,0-3.68-1.4-3.68-3.55v-7.88h-2.07v-1.53h2.07v-3.09h2.1v3.09h3.94v1.53h-3.94v7.65c0,1.22,.67,2.05,2.26,2.05Z"/><path class="cls-1" d="M1119.24,516.21c2,0,2.98-.7,3.53-2.59h1.97c-.62,2.88-2.28,4.12-5.5,4.12-4.23,0-6.04-2.02-6.04-6.74s1.79-6.74,6.04-6.74,6.02,2.1,6.02,7.03v.86h-9.96c.23,2.8,1.37,4.07,3.94,4.07Zm-.03-10.42c-2.75,0-3.97,1.45-3.97,4.95h7.93c0-3.55-1.19-4.95-3.97-4.95Z"/><path class="cls-1" d="M1130.77,516.24c0,1.04-.47,1.5-1.48,1.5s-1.45-.44-1.45-1.5,.44-1.5,1.45-1.5,1.48,.47,1.48,1.5Z"/><path class="cls-1" d="M1039.6,572.38v7.34h-2.18v-7.34l-6.33-10.81h2.54l4.9,8.71,4.9-8.71h2.41l-6.22,10.81h-.03Z"/><path class="cls-1" d="M1058.17,573.23c0,4.72-1.89,6.74-6.27,6.74s-6.3-2.02-6.3-6.74,1.89-6.74,6.3-6.74,6.27,2.02,6.27,6.74Zm-6.27,5c2.96,0,4.2-1.48,4.2-5s-1.22-5-4.2-5-4.23,1.45-4.23,5,1.25,5,4.23,5Z"/><path class="cls-1" d="M1065.87,579.97c-3.4,0-4.85-1.87-4.85-6.22v-7h2.07v7c0,3.19,.96,4.49,3.27,4.49,2.52,0,3.6-1.35,3.6-4.49v-7h2.07v12.97h-1.69l-.28-1.53c-.83,1.22-2.2,1.79-4.2,1.79Z"/><path class="cls-1" d="M1078.53,573.23v6.48h-2.07v-12.97h1.68l.31,1.56c.67-1.19,1.76-1.82,3.35-1.82h1.43v1.97h-1.43c-2.52,0-3.27,1.25-3.27,4.77Z"/><path class="cls-1" d="M1097.56,565.12v1.63h3.94v1.53h-3.94v11.44h-2.1v-11.44h-2.39v-1.53h2.39v-1.63c0-2.15,1.24-3.55,3.68-3.55h2.36v1.74h-1.87c-1.5,0-2.07,.7-2.07,1.82Z"/><path class="cls-1" d="M1109.88,578.44c2,0,2.98-.7,3.53-2.59h1.97c-.62,2.88-2.28,4.12-5.5,4.12-4.23,0-6.04-2.02-6.04-6.74s1.79-6.74,6.04-6.74,6.02,2.1,6.02,7.03v.86h-9.96c.23,2.8,1.37,4.07,3.94,4.07Zm-.03-10.42c-2.75,0-3.97,1.45-3.97,4.95h7.93c0-3.55-1.19-4.95-3.97-4.95Z"/><path class="cls-1" d="M1124.53,578.44c2,0,2.98-.7,3.53-2.59h1.97c-.62,2.88-2.28,4.12-5.5,4.12-4.23,0-6.04-2.02-6.04-6.74s1.79-6.74,6.04-6.74,6.02,2.1,6.02,7.03v.86h-9.96c.23,2.8,1.37,4.07,3.94,4.07Zm-.03-10.42c-2.75,0-3.97,1.45-3.97,4.95h7.93c0-3.55-1.19-4.95-3.97-4.95Z"/><path class="cls-1" d="M1133.13,573.21c0-4.72,1.66-6.74,5.55-6.74,2.1,0,3.55,.6,4.43,1.89v-6.82h2.07v18.15h-1.69l-.31-1.76c-.88,1.4-2.36,2.05-4.54,2.05-3.89,0-5.52-2.05-5.52-6.77Zm9.98,0c0-3.5-1.19-5-3.94-5s-3.97,1.5-3.97,5,1.19,5,3.97,5,3.94-1.5,3.94-5Z"/><path class="cls-1" d="M1155.87,580c-2.18,0-3.66-.65-4.54-2.05l-.31,1.76h-1.68v-18.15h2.07v6.82c.88-1.3,2.33-1.89,4.43-1.89,3.89,0,5.55,2.02,5.55,6.74s-1.63,6.77-5.52,6.77Zm3.47-6.74c0-3.5-1.19-5-3.94-5s-3.97,1.5-3.97,5,1.19,5,3.97,5,3.94-1.5,3.94-5Z"/><path class="cls-1" d="M1173.07,578.18c-.8,1.22-2.2,1.79-4.3,1.79-3.34,0-4.77-1.19-4.77-3.99,0-3.09,1.74-4.41,5.83-4.41h3.11v-.67c0-2.13-.96-3.01-3.22-3.01s-3.22,.8-3.22,2.75h-2c0-2.9,1.58-4.15,5.26-4.15s5.24,1.4,5.24,4.64v8.58h-1.69l-.26-1.53Zm-3.19-5.21c-2.67,0-3.81,.86-3.81,2.88,0,1.82,.91,2.49,3.19,2.49,2.46,0,3.68-1.09,3.68-3.66v-1.71h-3.06Z"/><path class="cls-1" d="M1190.18,575.23c-.44,3.32-2.18,4.75-5.76,4.75-4.41,0-6.3-2.02-6.3-6.74s1.89-6.74,6.3-6.74c3.58,0,5.32,1.43,5.76,4.75h-2.07c-.41-2.1-1.53-3.01-3.68-3.01-2.96,0-4.23,1.5-4.23,5s1.27,5,4.23,5c2.15,0,3.24-.91,3.68-3.01h2.07Z"/><path class="cls-1" d="M1195.63,572.35l5.83-5.6h2.54l-6.48,6.22,7,6.74h-2.54l-6.35-6.12v6.12h-2.07v-18.15h2.07v10.79Z"/><path class="cls-1" d="M1217.82,562.83c0,.98-.44,1.43-1.48,1.43s-1.45-.44-1.45-1.43,.44-1.45,1.45-1.45,1.48,.44,1.48,1.45Zm-2.52,16.88v-12.97h2.1v12.97h-2.1Z"/><path class="cls-1" d="M1231.33,576.01c0,2.77-1.58,3.97-5.29,3.97s-5.11-1.25-5.11-4.15h2c0,1.95,.91,2.75,3.16,2.75s3.16-.67,3.16-2.33c0-3.68-8.17-1.01-8.17-6.04,0-2.59,1.5-3.71,5-3.71s4.9,1.17,4.9,3.89h-1.89c0-1.76-.88-2.49-3.01-2.49s-3.01,.6-3.01,2.1c0,3.4,8.25,.83,8.25,6.02Z"/><path class="cls-1" d="M1253.76,575.23c-.44,3.32-2.18,4.75-5.76,4.75-4.41,0-6.3-2.02-6.3-6.74s1.89-6.74,6.3-6.74c3.58,0,5.32,1.43,5.76,4.75h-2.07c-.41-2.1-1.53-3.01-3.68-3.01-2.96,0-4.23,1.5-4.23,5s1.27,5,4.23,5c2.15,0,3.24-.91,3.68-3.01h2.07Z"/><path class="cls-1" d="M1259.2,573.23v6.48h-2.07v-12.97h1.68l.31,1.56c.67-1.19,1.76-1.82,3.35-1.82h1.43v1.97h-1.43c-2.52,0-3.27,1.25-3.27,4.77Z"/><path class="cls-1" d="M1271.34,579.97c-3.4,0-4.85-1.87-4.85-6.22v-7h2.07v7c0,3.19,.96,4.49,3.27,4.49,2.52,0,3.6-1.35,3.6-4.49v-7h2.07v12.97h-1.69l-.28-1.53c-.83,1.22-2.2,1.79-4.2,1.79Z"/><path class="cls-1" d="M1293.2,575.23c-.44,3.32-2.18,4.75-5.76,4.75-4.41,0-6.3-2.02-6.3-6.74s1.89-6.74,6.3-6.74c3.58,0,5.32,1.43,5.76,4.75h-2.07c-.41-2.1-1.53-3.01-3.68-3.01-2.96,0-4.23,1.5-4.23,5s1.27,5,4.23,5c2.15,0,3.24-.91,3.68-3.01h2.07Z"/><path class="cls-1" d="M1299.24,562.83c0,.98-.44,1.43-1.48,1.43s-1.45-.44-1.45-1.43,.44-1.45,1.45-1.45,1.48,.44,1.48,1.45Zm-2.52,16.88v-12.97h2.1v12.97h-2.1Z"/><path class="cls-1" d="M1311.43,578.18c-.8,1.22-2.2,1.79-4.3,1.79-3.34,0-4.77-1.19-4.77-3.99,0-3.09,1.74-4.41,5.83-4.41h3.11v-.67c0-2.13-.96-3.01-3.22-3.01s-3.22,.8-3.22,2.75h-2c0-2.9,1.58-4.15,5.26-4.15s5.24,1.4,5.24,4.64v8.58h-1.69l-.26-1.53Zm-3.19-5.21c-2.67,0-3.81,.86-3.81,2.88,0,1.82,.91,2.49,3.19,2.49,2.46,0,3.68-1.09,3.68-3.66v-1.71h-3.06Z"/><path class="cls-1" d="M1317.26,561.56h2.07v18.15h-2.07v-18.15Z"/><path class="cls-1" d="M1336.92,577.98h1.69v1.74h-2.36c-2.44,0-3.68-1.4-3.68-3.55v-7.88h-2.07v-1.53h2.07v-3.09h2.1v3.09h3.94v1.53h-3.94v7.65c0,1.22,.67,2.05,2.26,2.05Z"/><path class="cls-1" d="M1353.51,573.23c0,4.72-1.89,6.74-6.27,6.74s-6.3-2.02-6.3-6.74,1.89-6.74,6.3-6.74,6.27,2.02,6.27,6.74Zm-6.27,5c2.96,0,4.2-1.48,4.2-5s-1.22-5-4.2-5-4.23,1.45-4.23,5,1.25,5,4.23,5Z"/><path class="cls-1" d="M1368.99,579.97c-3.4,0-4.85-1.87-4.85-6.22v-7h2.07v7c0,3.19,.96,4.49,3.27,4.49,2.52,0,3.6-1.35,3.6-4.49v-7h2.07v12.97h-1.69l-.28-1.53c-.83,1.22-2.2,1.79-4.2,1.79Z"/><path class="cls-1" d="M1389.19,576.01c0,2.77-1.58,3.97-5.29,3.97s-5.11-1.25-5.11-4.15h2c0,1.95,.91,2.75,3.16,2.75s3.16-.67,3.16-2.33c0-3.68-8.17-1.01-8.17-6.04,0-2.59,1.5-3.71,5-3.71s4.9,1.17,4.9,3.89h-1.89c0-1.76-.88-2.49-3.01-2.49s-3.01,.6-3.01,2.1c0,3.4,8.25,.83,8.25,6.02Z"/><path class="cls-1" d="M1394.72,578.47c0,1.04-.47,1.5-1.48,1.5s-1.45-.44-1.45-1.5,.44-1.5,1.45-1.5,1.48,.47,1.48,1.5Z"/></g></svg>