<?xml version="1.0" encoding="UTF-8"?><svg id="Layer_2" xmlns="http://www.w3.org/2000/svg" viewBox="0 0 359.94 92.13"><defs><style>.cls-1{fill:#e9eaee;}</style></defs><g id="Layer_1-2"><g><g><path class="cls-1" d="M192.56,35.55c0,13.22-5.81,18.88-19.46,18.88s-19.46-5.66-19.46-18.88,5.81-18.88,19.46-18.88,19.46,5.66,19.46,18.88Zm-19.46,11.04c6.1,0,8.71-3.34,8.71-11.04s-2.61-11.04-8.71-11.04-8.72,3.27-8.72,11.04,2.61,11.04,8.72,11.04Z"/><path class="cls-1" d="M213.19,25.75c-5.45,0-7.77,2.9-7.77,9.73v18.16h-10.75V17.33h8.42l1.45,3.41c2.32-2.83,4.94-4.07,8.72-4.07h5.23v9.08h-5.3Z"/></g><g><path class="cls-1" d="M.33,34.28C.33,21.06,5.05,15.4,16.16,15.4c4.79,0,8.35,1.02,10.89,3.27V1.6h10.75V52.44h-8.42l-1.45-3.41c-2.54,2.83-6.39,4.14-11.77,4.14C5.05,53.16,.33,47.5,.33,34.28Zm26.73,0c0-7.7-2.4-11.04-7.99-11.04s-7.99,3.34-7.99,11.04,2.4,11.04,7.99,11.04,7.99-3.34,7.99-11.04Z"/><path class="cls-1" d="M60.61,24.47c-5.45,0-7.77,2.9-7.77,9.73v18.16h-10.75V16.05h8.42l1.45,3.41c2.32-2.83,4.94-4.07,8.72-4.07h5.23v9.08h-5.3Z"/><path class="cls-1" d="M79.13,5.66c0,3.99-1.89,5.66-6.25,5.66s-6.25-1.67-6.25-5.66,1.89-5.66,6.25-5.66,6.25,1.74,6.25,5.66Zm-11.62,46.77V16.12h10.75V52.44h-10.75Z"/><path class="cls-1" d="M106.07,16.12h11.4l-11.11,36.31h-16.12l-11.11-36.31h11.4l7.99,29.2,7.55-29.2Z"/><path class="cls-1" d="M134.03,46.48c4.14,0,6.17-1.6,7.12-5.37h10.17c-1.6,8.42-6.75,12.06-17.28,12.06-13.15,0-18.74-5.66-18.74-18.88s5.59-18.88,18.74-18.88,18.74,5.74,18.74,19.17v3.2h-26.65c.58,6.03,2.98,8.72,7.92,8.72Zm-7.99-14.82h16.05c0-6.75-2.4-9.59-7.99-9.59-5.08,0-7.55,2.9-8.06,9.59Z"/></g><g><path class="cls-1" d="M237,13.28v3.49h10.46v6.68h-10.46v29.63h-10.75V23.45h-6.1v-6.68h6.1v-3.49c0-6.83,4.07-11.04,11.18-11.04h10.02v7.84h-7.12c-2.32,0-3.34,1.16-3.34,3.2Z"/><path class="cls-1" d="M249.64,2.24h10.75V53.08h-10.75V2.24Z"/><path class="cls-1" d="M276.44,52.93l.29-.8-15.69-35.37h10.24l9.51,22.95,7.55-22.95h10.17l-12.2,35.01c-3.7,10.09-8.28,14.38-15.25,14.38h-5.23v-6.68h4.65c2.69,0,4.5-1.96,6.03-6.54h-.07Z"/><path class="cls-1" d="M304.54,47.85c0,4.14-1.89,5.96-6.25,5.96s-6.25-1.82-6.25-5.96,1.89-6.03,6.25-6.03,6.25,1.82,6.25,6.03Z"/><path class="cls-1" d="M318.48,6.31c0,3.99-1.89,5.66-6.25,5.66s-6.25-1.67-6.25-5.66,1.89-5.66,6.25-5.66,6.25,1.74,6.25,5.66Zm-11.62,46.77V16.76h10.75V53.08h-10.75Z"/><path class="cls-1" d="M358.86,34.92c0,13.22-5.81,18.88-19.46,18.88s-19.46-5.66-19.46-18.88,5.81-18.88,19.46-18.88,19.46,5.66,19.46,18.88Zm-19.46,11.04c6.1,0,8.71-3.34,8.71-11.04s-2.61-11.04-8.71-11.04-8.72,3.27-8.72,11.04,2.61,11.04,8.72,11.04Z"/></g></g><rect class="cls-1" y="75.98" width="225" height="16.16"/><rect class="cls-1" x="220" y="75.98" width="139.94" height="16.16"/></g></svg>