<?xml version="1.0" encoding="UTF-8"?><svg id="Layer_2" xmlns="http://www.w3.org/2000/svg" viewBox="0 0 125.14 115.01"><defs><style>.cls-1{fill:#ffba06;}</style></defs><g id="Layer_1-2"><path class="cls-1" d="M49.78,72.54l-12.42,39.46,22.07,3.01,21.66-44.43,11.6-.29,11.6-.29c1.99-.05,4.84-.33,8.11-1.39,3.5-1.13,6.72-2.09,9.24-4.98,2.38-2.73,3.95-6.94,3.39-10.76-1.63-11.01-20.49-14.57-22.17-14.86-8.1-1.43-15.1,.12-19.71,1.68C74.52,26.45,65.9,13.23,57.28,0l-19.71,1.68,13.14,43.56-23.2,.58-10.57-15.16L.72,33.45l8.31,22.33L0,84.47l18.58,1.91,9.14-16.84,22.07,3.01Z"/></g></svg>