<?xml version="1.0" encoding="utf-8"?>
<!-- Svg Vector Icons : http://www.onlinewebfonts.com/icon -->
<!DOCTYPE svg PUBLIC "-//W3C//DTD SVG 1.1//EN" "http://www.w3.org/Graphics/SVG/1.1/DTD/svg11.dtd">
<svg version="1.1" xmlns="http://www.w3.org/2000/svg" xmlns:xlink="http://www.w3.org/1999/xlink" x="0px" y="0px" viewBox="0 0 1000 1000" enable-background="new 0 0 1000 1000" xml:space="preserve">
<metadata> Svg Vector Icons : http://www.onlinewebfonts.com/icon </metadata>
<g><path d="M939.2,614.6c-18.7-41.1-12-83.6-5.6-124.6c9.9-63.5,7.3-141.2-95.1-186.7c6.8-24.2,37.5-52,16.7-61.9l-121.8-57.9c-26.6-12.7-96.1-9.9-104.2,6.7c-8.1,16.6-30.5,51.3,26.4,64.2c56.9,13,110,78.7,110,78.7c19.2,18.4,42.8,22,58.3,29.6c57.3,28,53.4,55.6,54.3,116.3c0.7,47.1-16.2,104.5,11.2,165c37,81.6,56,146.3,24.1,177.2c-39.1,38-92,25.9-125.3,4.1c-45-29.5-62.6-100.8-58.4-187.1c2.3-48.8,4.8-99.4-9.9-142.5c-32.4-95.5-84.8-82.3-89.4-82.3l-44.2-0.1V74.8c0-19.8-17.3-36-37.4-36H132.2c-20.1,0-36.5,16.2-36.5,36v800H46.5c0,0-36.5,0-36.5,36v50.5h36.5h49.2h36.5h416.6h36.5h50.9h36.5v-50.5c0,0,0.9-36-35.6-36h-50.9V471.1l43.8,0c5.3,0.1,22,2.3,37.3,47.5c10.3,30.3,8.2,72,6.2,116.2c-4.1,84.1-8.6,179.5,74.2,233.7C781,890.3,817.2,901,852.2,901c41.6,0,69.5-8,100.4-37.9C1034.5,784,959.4,659,939.2,614.6 M789.8,315.8c-10.1,0-18.3-8.1-18.3-18c0-9.9,8.2-18,18.3-18c10.1,0,18.2,8.1,18.2,18C808,307.8,799.9,315.8,789.8,315.8 M182.3,158.5c0-18.4,15.2-33.4,33.8-33.4h250.5c18.6,0,33.8,15,33.8,33.4v192.9c0,18.3-15.2,33.4-33.8,33.4H216.1c-18.6,0-33.8-15-33.8-33.4V158.5z"/></g>
</svg>