<?xml version="1.0" encoding="utf-8"?>
<!-- Svg Vector Icons : http://www.onlinewebfonts.com/icon -->
<!DOCTYPE svg PUBLIC "-//W3C//DTD SVG 1.1//EN" "http://www.w3.org/Graphics/SVG/1.1/DTD/svg11.dtd">
<svg version="1.1" xmlns="http://www.w3.org/2000/svg" xmlns:xlink="http://www.w3.org/1999/xlink" x="0px" y="0px" viewBox="0 0 1000 1000" enable-background="new 0 0 1000 1000" xml:space="preserve">
<metadata> Svg Vector Icons : http://www.onlinewebfonts.com/icon </metadata>
<g><g transform="translate(0.000000,511.000000) scale(0.100000,-0.100000)"><path d="M3018.7,110v-4900h213h213V110v4900h-213h-213V110z"/><path d="M6576.5,110v-4900h202.4h202.4V110v4900h-202.4h-202.4V110z"/><path d="M4806.1,3961.8c-8.5-245-10.6-1874.8-2.1-1940.8l10.7-81l193.9,6.4l193.9,6.4l6.4,1039.6L5213,4030h-202.4h-202.4L4806.1,3961.8z"/><path d="M4931.8,1160.3l-123.6-8.5l-2.1-121.4c-2.1-66-4.2-530.5-6.4-1031.1l-2.1-911.8h208.8H5213L5208.8,127l-6.4,1037.5l-74.6,2.1C5087.3,1166.7,4997.9,1164.6,4931.8,1160.3z"/><path d="M4806.1-1726.4c0-4.3-2.1-473-4.2-1046l-4.3-1037.5h208.8H5213l-4.3,1039.6l-6.4,1037.5l-196,6.4C4897.7-1724.3,4808.3-1724.3,4806.1-1726.4z"/></g></g>
</svg>